<svg width="573" height="858" viewBox="0 0 573 858" fill="none" xmlns="http://www.w3.org/2000/svg">
  <path d="M35.77 144.65L34.43 140.88C28.64 124.59 16.09 111.6 0 105.26C15.5 97.59 26.9199 83.59 31.3199 66.87L32.34 63L33.68 66.77C39.47 83.06 52.02 96.05 68.11 102.39C52.61 110.06 41.19 124.06 36.79 140.78L35.77 144.65Z" fill="#EDFF00"/>
  <path d="M538.63 384.17L537.45 380.35C532.35 363.83 520.35 350.32 504.55 343.31C520.35 336.3 532.35 322.79 537.45 306.27L538.63 302.45L539.81 306.27C544.91 322.79 556.91 336.3 572.71 343.31C556.91 350.32 544.91 363.83 539.81 380.35L538.63 384.17Z" fill="#EDFF00"/>
  <path d="M435.23 194.44L434.05 190.19C430.98 179.09 423.32 169.83 413 164.72C423.32 159.61 430.98 150.35 434.05 139.25L435.23 135L436.41 139.25C439.48 150.35 447.14 159.61 457.46 164.72C447.14 169.83 439.48 179.09 436.41 190.19L435.23 194.44Z" fill="#EDFF00"/>
  <path d="M287.47 86.23C279.87 89.59 288.73 67.41 284.09 54.29C279.47 41.21 264.01 32.85 251.16 31.59C241.65 30.66 234.11 33.67 226.67 36.63C220.32 39.16 213.85 41.83 208.09 48.4C205.72 51.1 200.66 56.88 199.65 65.21C198.35 75.88 204.58 83.47 201.34 86.22C199.12 88.11 195.81 84.86 192.05 87.06C188.39 89.2 187.23 94.8 187.83 98.83C188.18 101.2 189.47 103.21 192.05 107.24C192.05 107.24 193.64 109.72 199.65 117.33C200.65 119.85 202.25 123.42 204.72 127.42C205.41 128.54 207.91 132.5 212.32 137.51C219.13 145.25 222.35 146.23 223.3 150.96C223.98 154.36 222.99 157.27 222.46 158.53C220.51 163.12 216.33 165.33 213.17 166.94C200.73 173.28 194.51 176.45 189.53 177.87C177.73 181.24 177.41 179 163.35 182.91C153.67 185.6 148.91 188.03 144.77 191.32C143.09 192.65 139.36 195.68 136.33 200.57C132.22 207.2 132.09 212.94 131.26 227.47C129.89 251.41 129.61 246.82 129.57 253.53C129.48 269.97 131.34 269.58 132.1 289.67C132.72 306.01 131.93 317.85 131.26 327.5C130.68 335.77 130.15 339.46 129.57 342.63C127.56 353.61 125.28 356.42 122.82 366.17C120.74 374.4 122.19 373.06 119.44 393.07C116.86 411.82 115.73 411.97 116.06 419.13C116.56 429.85 119.2 431.43 117.75 439.3C116.35 446.86 113.46 447.87 111.84 456.95C110.48 464.6 112.39 464.64 111 472.08C109.3 481.13 106.34 481.82 105.09 490.57C104.66 493.59 104.8 497.07 105.09 504.02C105.37 510.72 105.56 514.83 106.78 519.99C107.94 524.87 108.74 528.25 111 531.76C118.17 542.85 134.62 546.88 134.64 546.89C141.03 547.73 142.71 546.92 143.08 546.05C144.01 543.86 137.93 538.34 132.1 535.12C127.79 532.74 126.28 533.09 124.5 530.92C122.22 528.15 122.63 525.08 122.81 518.31C123.22 502.95 121.67 498.93 124.5 497.3C126.74 496 130.18 497.1 132.1 498.98C133.69 500.53 132.93 502.38 132.94 509.91C132.96 516.41 133.42 518.1 133.78 519.16C134.66 521.67 136.91 526.1 138.85 525.88C142.08 525.52 144.93 512.21 143.07 499.82C140.82 484.8 133.6 484.11 131.25 472.08C130.12 466.27 130.84 461.53 145.6 426.69C157.05 399.65 157.92 399.44 159.11 393.07C162.77 373.51 155.54 370.71 158.27 350.2C161.6 325.08 172.87 326.08 170.94 309.01C170.94 309.01 166.98 274.13 167.43 269.17C167.43 269.13 167.43 269.08 167.43 269.08C167.43 269.08 167.49 268.45 167.56 267.82C169.69 248.76 173.47 248.49 173.47 248.49C175.56 248.34 178.25 253.63 178.54 258.58C178.79 263.02 176.96 264.65 176.01 268.67C174.38 275.54 177.21 281.58 182.76 293.05C186.6 300.97 189.99 306.17 191.2 308.18C205.66 332.07 193.64 368.49 191.2 375.43C185.09 392.76 180.84 390.28 171.78 413.26C169.49 419.07 164.02 433.78 160.8 453.61C160.11 457.87 156.98 477.98 159.11 504.89C160.86 527.02 166.48 546.17 170.93 562.05C172.47 567.53 174.31 573.82 174.31 573.82C181.77 599.28 183.56 602.01 185.29 611.65C186.12 616.28 187.45 625.44 186.98 636.87C186.51 648.15 184.74 650.64 182.76 667.97C181.47 679.3 180.82 684.96 181.07 692.35C181.31 699.51 182.15 702.71 186.98 725.97C190.32 742.05 192 750.19 192.89 755.39C193.81 760.75 194.91 769.89 197.11 788.17C198.11 796.47 198.85 802.98 197.95 811.71C197.4 817 196.94 821.11 194.57 826C193.38 828.45 190.04 835.35 182.75 840.29C178.61 843.09 175.35 843.81 175.15 846.17C174.92 848.82 178.72 851.14 180.22 852.05C188.21 856.93 203.79 860.07 211.46 852.05C217.5 845.73 217.4 833.8 217.37 831.04C217.35 828.54 217.03 825.33 218.21 820.95C219.26 817.08 220.46 816.08 220.74 813.38C221.29 808.16 217.61 803.94 216.52 802.45C209.89 793.46 216.06 773.92 224.96 736.04C230.78 711.28 231.14 706.92 230.87 701.58C230.34 690.91 227.92 688 226.65 672.16C225.55 658.42 226.34 647.91 226.65 644.42C227.48 634.97 229.17 627.47 232.56 612.48C236.75 593.93 237.64 594.05 239.31 583.9C241.39 571.32 241.63 561.49 241.84 552.8C242.18 538.77 242.35 531.71 241 521.7C239.77 512.62 237.67 503.97 238.47 490.6C238.9 483.4 239.92 478.98 242.69 477.99C245.25 477.07 248.57 479.35 250.29 481.35C251.93 483.26 253.14 486.1 252.82 494.8C252.59 501.19 251.73 505.07 251.13 509.09C250.55 513 250.45 518.48 250.29 529.26C250.05 544.75 249.93 552.49 250.29 557C250.97 565.62 251.68 564.77 254.51 583.9C256.99 600.66 256.17 599.46 257.89 608.28C259.85 618.36 261.25 621.6 262.96 632.66C263.49 636.1 264.2 640.76 264.65 646.95C264.93 650.79 265.36 658.77 264.65 669.65C263.55 686.52 261.3 685.6 261.27 696.55C261.26 700.77 262.39 708.05 264.65 722.61C266.69 735.74 266.95 735.52 268.03 743.62C269.5 754.75 268.94 754.71 270.56 767.16C272.22 779.91 273.09 786.49 273.09 786.49C274.51 797.24 274.74 798.81 273.93 801.62C272.16 807.78 268.36 809.68 268.86 815.07C269.1 817.63 270 817.68 271.39 822.64C272.55 826.77 272.85 830.01 273.08 832.73C274.04 843.94 271.54 845.16 273.08 848.7C276.83 857.31 295.57 859.1 307.7 853.74C309.53 852.93 314.46 850.75 314.45 847.86C314.45 844.74 308.7 843.17 304.32 840.29C295.35 834.41 292.92 823.6 290.81 814.23C288.56 804.23 289.47 797.31 295.03 767.16C300.17 739.27 301.26 735.08 303.47 720.93C306.54 701.27 308.07 691.25 307.69 681.42C307.35 672.54 306.05 663.17 303.47 644.43C301.34 628.99 301.07 629.8 300.94 625.94C300.43 610.69 304.75 600.28 309.38 586.43C309.38 586.43 314.43 571.33 321.2 543.56C326.12 523.39 330.7 504.58 330.49 479.68C330.39 468.09 330.12 451.54 323.74 431.77C319.99 420.16 314.44 408.41 312.76 404.87C305.51 389.61 301.76 385.6 297.56 372.93C293.91 361.91 292.81 353.1 292.49 350.23C291.58 342.04 290.07 328.4 295.02 313.24C300.26 297.18 306.32 299.1 308.53 285.5C308.75 284.14 308.73 283.88 311.06 257.76C311.6 251.67 311.89 248.62 312.75 248.51C314.6 248.28 318.36 260.31 319.5 272.05C320.75 284.87 317.99 287.99 317.81 298.95C317.45 320.58 327.94 325.18 329.63 347.7C330.78 362.96 326.08 362.44 326.25 377.12C326.7 415.85 359.46 430 354.11 459.5C353.6 462.33 351.29 473.25 348.2 485.56C345.84 494.97 344.7 498.46 343.98 504.89C342.8 515.35 343.32 528.08 345.67 528.43C347.49 528.7 350.47 521.61 351.58 515.82C352.72 509.87 352.42 502.37 352.42 502.37C352.42 502.37 354.54 495.81 356.64 495.65C358.78 495.48 361.39 501.94 362.55 507.42C363.45 511.65 366.11 524.23 359.17 532.64C359.17 532.64 358.13 533.9 346.5 541.89C346.5 541.89 355.47 543.96 360.85 542.73C368.26 541.04 372.2 532.37 374.36 527.6C380.9 513.19 379.13 499.13 376.89 481.37C375.75 472.32 374.02 464.19 372.67 457.83C370.3 446.67 368.79 442.11 367.6 436.82C363.85 420.1 366.51 410.46 366.76 395.63C367.13 373.13 361.35 375.16 356.63 339.31C354.33 321.82 352.06 304.62 354.1 282.15C355.19 270.17 356.91 263.12 357.48 246.01C358.02 229.78 358.22 221.47 354.95 212.39C353.74 209.02 347.18 190.78 330.46 182.97C325.46 180.63 326.26 182.36 305.97 177.93C287.75 173.95 282.58 171.56 278.95 169.52C274.79 167.18 262.02 160.02 262.91 152.71C263.54 147.48 270.41 148.39 276.42 140.1C283.03 130.97 280.64 128.33 285.71 117.4C288.22 111.98 292.94 113.86 295.84 108.99C296.16 108.45 299.97 101.84 297.53 95.54C295.5 90.31 292.45 84.06 287.4 86.29L287.47 86.23Z" fill="#FFE8CC" stroke="#B7B7B7" stroke-miterlimit="10"/>
  <path d="M225.33 7.16C225.33 7.16 182.22 9.1 177.09 57.35C177.09 57.35 176.58 70.37 167.34 75.68C167.34 75.68 152.97 84.36 160.16 107.52C160.16 107.52 163.24 122 149.89 130.21C149.89 130.21 138.6 139.38 145.8 152.41C145.8 152.41 150.42 156.76 142.2 164.47C142.2 164.47 135.01 176.53 147.33 192.94C147.33 192.94 145.79 180.89 148.87 177.99C148.87 177.99 159.64 190.04 157.09 198.26C157.09 198.26 174.54 189.09 199.68 187.16C199.68 187.16 229.96 181.84 226.88 145.66C226.88 145.66 198.66 124.91 199.68 106.56L203.27 79.54C203.27 79.54 215.08 66.04 216.1 60.73C216.1 60.73 224.31 72.31 214.04 80.99C214.04 80.99 232 77.13 225.85 53C225.85 53 229.95 44.32 232.52 44.8C232.52 44.8 241.24 66.03 266.91 67.48C266.91 67.48 271 91.6 286.91 94.02C286.91 94.02 287.42 130.2 264.84 145.17C264.84 145.17 259.71 187.64 304.87 189.57C304.87 189.57 296.66 208.87 314.62 212.73C314.62 212.73 311.54 193.91 326.42 193.91L333.09 201.62C333.09 201.62 349 182.81 341.81 169.79C341.81 169.79 326.93 163.03 332.58 145.18C332.58 145.18 341.81 138.43 328.98 129.74C328.98 129.74 326.42 126.36 331.05 122.5C331.05 122.5 346.95 109.95 320.27 82.44L319.26 57.35C319.26 57.35 312.08 19.71 263.33 1.85C263.31 1.85 228.41 -4.42995 225.32 7.15005L225.33 7.16Z" fill="black"/>
</svg>
