<?xml version="1.0" encoding="UTF-8"?>
<svg id="Layer_1" data-name="Layer 1" xmlns="http://www.w3.org/2000/svg" viewBox="0 0 304.44 759.48">
  <defs>
    <style>
      .cls-1 {
        fill: #010101;
      }

      .cls-1, .cls-2, .cls-3, .cls-4 {
        stroke-width: 0px;
      }

      .cls-2 {
        fill: #385c2c;
      }

      .cls-3 {
        fill: #046937;
      }

      .cls-5 {
        stroke: #385c2c;
        stroke-miterlimit: 10;
      }

      .cls-5, .cls-4 {
        fill: #c3e4ce;
      }
    </style>
  </defs>
  <path class="cls-5" d="M2.32,734.49c4.48,2.78,11.38-6.23,33.96-10.13,3.71-.64,16.93-2.71,41.79.78,18.96,2.66,29.61,6.45,56.59,14.81,39.06,12.1,58.59,18.16,66.17,18.7,30.03,2.17,31.99-7.16,67.04-3.9,11.32,1.05,21.42,2.99,26.99-2.34,6.33-6.04,2.45-17.26,0-26.5-5.5-20.77-2-42.67-4.35-63.91-9.49-85.66-9.23-78.46-10.45-92.74-3.6-42.36.11-35.75-3.48-109.11-2.9-59.21-5.17-60.44-3.48-84.17,1.96-27.45,5.82-37.36,1.74-59.23-2.6-13.97-5-14.05-17.41-53-10.88-34.15-11.6-42.06-10.45-50.66,1.86-13.88,6.53-14.09,16.54-38.19,12.12-29.18,21.74-52.33,10.45-67.8-6.89-9.45-18.21-11.41-20.03-22.6-1.08-6.66,1.6-11.87,4.35-16.37,13.32-21.76,15.74-55.2,3.48-63.91-5.51-3.92-16.28-4.53-22.64,0-19.62,13.97,15.43,67.69-2.61,79.49-5.91,3.87-10.11-1.61-36.57-.78-17.03.53-19.36,2.93-34.83,3.12-20.55.25-30.82.38-37.44-4.68-20.48-15.63,12.13-63.28-7.84-77.15-7.22-5.02-19.98-4.97-26.12,0-13.97,11.32,15.32,40.88,0,71.7-3.71,7.45-8.98,12.88-11.32,24.94-1.06,5.47-1.75,13.5.87,25.72,4.06,18.87,12.11,29.48,17.41,39.75,14.39,27.85,10.1,56.22,8.71,65.46-4.05,26.83-15.55,29.09-26.12,72.48-3.14,12.87-4.63,22.96-5.22,27.28-3.67,26.73-2.21,46.86-1.74,54.55,3.22,53.14-4.71,111.75-7.84,134.83-2.89,21.34-6.13,45.25-14.8,75.6-22.68,79.36-62.12,131.27-51.37,137.94"/>
  <g>
    <path class="cls-4" d="M134.68,85c-6.15,39.2-2.12,79.65,11.7,117.26"/>
    <path class="cls-2" d="M133.23,84.6c-2.4,15.37-3.3,30.94-2.63,46.49.67,15.55,2.89,31.05,6.58,46.17,2.1,8.6,4.7,17.08,7.74,25.4.66,1.8,3.56,1.02,2.89-.8-10.6-28.94-15.52-59.83-14.24-90.64.36-8.65,1.21-17.27,2.54-25.82.29-1.89-2.6-2.7-2.89-.8h0Z"/>
  </g>
  <path class="cls-2" d="M224.84,86.57c1.72,8.8,3.45,17.61,5.17,26.41,1.71,8.73,3.81,17.49,4.75,26.35.45,4.26.55,8.54.07,12.8-.43,3.78-1.29,7.5-2.31,11.16-2.05,7.35-4.82,14.47-6.94,21.79-2.33,8.05-3.73,16.36-2.41,24.71.3,1.9,3.19,1.09,2.89-.8-2.38-15.08,4.91-29.58,9-43.7,2.24-7.7,3.51-15.52,2.92-23.55-.65-8.81-2.71-17.51-4.41-26.17-1.95-9.94-3.89-19.87-5.84-29.81-.37-1.89-3.26-1.09-2.89.8h0Z"/>
  <g>
    <path class="cls-4" d="M250,207.71c-46.3,4.19-93.19,7.95-139.2,1.72"/>
    <path class="cls-2" d="M250,206.21c-18.05,1.63-36.12,3.19-54.23,4.13s-36.01,1.25-54,.38c-10.22-.49-20.43-1.37-30.58-2.73-.81-.11-1.6.19-1.85,1.05-.2.7.25,1.74,1.05,1.85,17.96,2.42,36.06,3.38,54.17,3.35s36.56-1.03,54.79-2.42c10.22-.78,20.43-1.68,30.64-2.6,1.91-.17,1.93-3.17,0-3h0Z"/>
  </g>
  <g>
    <path class="cls-4" d="M147.04,201.39c0,3.04,0,6.07,0,9.11"/>
    <path class="cls-2" d="M145.54,201.39c0,3.04,0,6.07,0,9.11,0,.78.69,1.54,1.5,1.5s1.5-.66,1.5-1.5c0-3.04,0-6.07,0-9.11,0-.78-.69-1.54-1.5-1.5s-1.5.66-1.5,1.5h0Z"/>
  </g>
  <g>
    <path class="cls-4" d="M109.53,27.3c.54,15.18,1.07,30.35,1.61,45.53"/>
    <path class="cls-2" d="M108.03,27.3c.54,15.18,1.07,30.35,1.61,45.53.07,1.93,3.07,1.93,3,0-.54-15.18-1.07-30.35-1.61-45.53-.07-1.93-3.07-1.93-3,0h0Z"/>
  </g>
  <path class="cls-2" d="M256.28,29.33c1.85,17.33-2.46,34.77-11.77,49.47-1.04,1.64,1.56,3.14,2.59,1.51,9.56-15.09,14.08-33.18,12.18-50.98-.2-1.9-3.21-1.92-3,0h0Z"/>
  <g>
    <path class="cls-4" d="M111.94,222.71c7.07,3.97,15.45,6.06,23.79,5.93"/>
    <path class="cls-2" d="M111.18,224.01c7.49,4.16,16,6.23,24.55,6.14,1.93-.02,1.93-3.02,0-3-8.03.08-16-1.82-23.04-5.73-1.69-.94-3.2,1.65-1.51,2.59h0Z"/>
  </g>
  <path class="cls-2" d="M108.08,227.11c2.09,8.17,11.66,11.34,18.88,13.2,10.45,2.69,21.17,4.35,31.94,4.99,6.21.37,12.44.39,18.66.08,1.92-.1,1.93-3.1,0-3-10.38.52-20.81.12-31.11-1.29-5.04-.69-10.05-1.61-15-2.77-4.18-.97-8.44-1.99-12.33-3.84-3.56-1.69-7.12-4.15-8.15-8.17-.48-1.87-3.37-1.08-2.89.8h0Z"/>
  <g>
    <path class="cls-4" d="M176.98,86.88c-4.69,41.67,15.72,84.52,3.36,124.91"/>
    <path class="cls-2" d="M175.48,86.88c-1.81,16.35.18,32.77,2.51,48.97,2.32,16.11,5.12,32.29,4.87,48.62-.14,9.12-1.32,18.18-3.97,26.93-.56,1.85,2.33,2.64,2.89.8,4.75-15.66,4.7-32.14,3.02-48.28-1.72-16.48-4.98-32.76-6.39-49.27-.79-9.24-.96-18.54.06-27.77.21-1.92-2.79-1.9-3,0h0Z"/>
  </g>
  <g>
    <path class="cls-4" d="M192.46,85c-3.16,27.07,12.64,53.16,13.76,80.36.74,18.08-5.03,35.81-10.75,53.16"/>
    <path class="cls-2" d="M190.96,85c-1.94,17.1,3.48,33.78,8,50.04,2.28,8.18,4.44,16.47,5.35,24.94.99,9.17.27,18.37-1.53,27.4-2.09,10.47-5.43,20.63-8.76,30.75-.61,1.84,2.29,2.63,2.89.8,5.85-17.74,11.88-36.13,10.73-55.07-1.05-17.29-7.5-33.57-11.35-50.31-2.15-9.36-3.42-18.94-2.33-28.54.22-1.92-2.78-1.9-3,0h0Z"/>
  </g>
  <g>
    <path class="cls-4" d="M181.85,211.44c-24.94,68.95-30.05,142.3-31.44,214.76-1.92,100.27,2.95,200.65,14.57,300.39"/>
    <path class="cls-2" d="M180.4,211.04c-11.14,30.92-18.46,63.06-23.13,95.56-4.62,32.13-6.75,64.55-7.79,96.97-1.1,34.21-1.24,68.46-.66,102.68.59,34.68,1.98,69.34,4.18,103.95,2.2,34.63,5.22,69.21,9.04,103.7.47,4.23.95,8.46,1.44,12.68.22,1.9,3.22,1.92,3,0-3.99-34.3-7.2-68.7-9.59-103.15s-4-68.91-4.79-103.42c-.79-34.31-.81-68.65.01-102.96.78-32.62,2.44-65.25,6.45-97.64s10.53-64.9,20.78-96.1c1.26-3.85,2.59-7.67,3.96-11.48.66-1.82-2.24-2.6-2.89-.8h0Z"/>
  </g>
  <g>
    <path class="cls-4" d="M196.76,216.55c-31.55,115.6-22.58,236.56-13.41,355.28"/>
    <path class="cls-2" d="M195.31,216.15c-6.1,22.42-10.75,45.22-14.14,68.21-3.37,22.92-5.52,46.02-6.72,69.16-1.2,23.19-1.44,46.42-1.04,69.64.4,23.41,1.45,46.81,2.85,70.19s3.12,46.49,4.91,69.72c.22,2.92.45,5.85.68,8.77.15,1.91,3.15,1.93,3,0-1.79-23.22-3.57-46.44-5.04-69.67-1.47-23.15-2.63-46.32-3.19-69.51-.57-23.23-.53-46.47.41-69.69.94-23.13,2.78-46.23,5.84-69.18,3.06-22.98,7.35-45.81,13.09-68.27.73-2.86,1.48-5.7,2.26-8.55.51-1.87-2.39-2.66-2.89-.8h0Z"/>
  </g>
  <path class="cls-1" d="M181.91,570.82l-2.15,34.42c-.12,1.93,2.88,1.92,3,0l2.15-34.42c.12-1.93-2.88-1.92-3,0h0Z"/>
  <g>
    <path class="cls-4" d="M185.55,106.24c1.75.94-.56,3.87-2.14,2.72.24-1.44,2.38-2.31,3.75-1.52-.41.92-1,1.97-2.1,2.13s-1.91-1.56-.83-1.78"/>
    <path class="cls-2" d="M184.8,107.54c.07.04.13.08.19.12l-.3-.23c.08.06.15.13.22.21l-.23-.3c.05.07.09.14.13.22l-.15-.36c.04.09.07.19.08.29l-.05-.4c.01.11.01.23,0,.34l.05-.4c-.02.15-.07.3-.13.44l.15-.36c-.08.17-.17.33-.28.48l.23-.3c-.13.17-.29.33-.46.46l.3-.23c-.14.11-.29.2-.46.27l.36-.15c-.14.06-.28.1-.43.12l.4-.05c-.12.02-.25.02-.37,0l.4.05c-.12-.02-.23-.05-.33-.09l.36.15c-.1-.04-.2-.1-.29-.17l.69,1.69c.02-.12.06-.24.1-.36l-.15.36c.07-.16.15-.3.25-.43l-.23.3c.13-.16.27-.3.43-.43l-.3.23c.19-.15.4-.26.62-.36l-.36.15c.26-.11.52-.18.8-.22l-.4.05c.24-.03.49-.03.73,0l-.4-.05c.2.03.38.08.57.15l-.36-.15c.08.04.16.08.24.12l-.54-2.05c-.2.44-.42.87-.71,1.25l.23-.3c-.15.19-.31.36-.5.5l.3-.23c-.14.1-.28.18-.43.25l.36-.15c-.15.06-.3.1-.45.13l.4-.05c-.09.01-.18.01-.27,0l.4.05c-.09-.01-.17-.04-.26-.07l.36.15c-.1-.04-.2-.1-.29-.17l.3.23c-.1-.08-.18-.17-.26-.27l.23.3c-.06-.09-.12-.18-.16-.28l.15.36c-.04-.09-.07-.19-.08-.29l.05.4c0-.07-.01-.14,0-.22l-.05.4s.02-.09.04-.14l-.15.36s.04-.09.07-.12l-.23.3s.07-.07.11-.1l-.3.23s.07-.05.11-.07l-.36.15c.06-.02.12-.04.18-.06.77-.17,1.29-1.1,1.05-1.85-.26-.81-1.02-1.23-1.85-1.05-.94.21-1.58,1.05-1.61,2-.02.71.32,1.41.8,1.91.21.22.47.42.75.54.4.18.82.32,1.27.27.87-.08,1.66-.45,2.27-1.09.49-.52.85-1.14,1.15-1.79.16-.36.28-.76.15-1.16-.12-.37-.34-.7-.69-.9-1.04-.59-2.37-.67-3.47-.22-.6.24-1.15.54-1.6,1.02-.42.44-.77,1.01-.88,1.62-.06.34-.06.65.08.98s.33.52.61.72c.48.34,1.15.52,1.74.46.47-.05.79-.14,1.22-.34.28-.13.51-.31.74-.5.38-.3.71-.71.93-1.14.13-.26.26-.54.32-.83.09-.45.09-.77.02-1.22-.12-.74-.67-1.39-1.31-1.74-.35-.19-.77-.26-1.16-.15-.35.1-.73.36-.9.69-.37.7-.2,1.65.54,2.05h0Z"/>
  </g>
  <g>
    <path class="cls-4" d="M192.29,129.53c.31,2.34-1.29,4.78-3.72,5.68-1.13-1.1-1.09-3,.09-4.06s3.3-1.1,4.53-.09c.59,1.5-1.58,3.16-3.15,2.4"/>
    <path class="cls-2" d="M190.79,129.53c.03.28.05.57.03.85,0,.06,0,.13-.02.19-.03.28-.02-.1.02-.13-.05.05-.07.34-.09.42-.03.14-.07.28-.12.41-.02.06-.04.12-.07.18-.11.28.06-.09.05-.1.05.07-.36.69-.41.77-.07.11-.16.21-.23.33.2-.34.12-.15.03-.05-.04.05-.09.1-.13.15-.19.21-.4.41-.62.59-.12.1-.27.13.04-.03-.06.03-.11.08-.17.12-.13.09-.25.17-.39.25-.12.07-.24.14-.37.2-.07.04-.16.07-.23.11l.2-.09c-.05.02-.11.04-.16.06l1.46.39c-.07-.07-.13-.16-.21-.23.25.23.14.2.06.06-.05-.09-.1-.18-.15-.26-.13-.23.12.35.03.08-.05-.17-.08-.34-.13-.51.12.43.03.23.02.07,0-.09,0-.17,0-.26,0-.05,0-.1.01-.15l-.03.25c-.01-.08.04-.21.06-.29.02-.07.04-.14.07-.21.07-.24-.18.36,0,.01.03-.07.07-.13.11-.2.03-.05.23-.32.06-.1s.05-.04.09-.08c.06-.06.14-.12.2-.18.09-.07.04-.03-.15.12.04-.03.08-.06.13-.09.06-.04.13-.08.2-.12.11-.06.44-.16-.01-.01.07-.02.14-.06.22-.08.18-.06.35-.09.53-.13.28-.06-.4.04-.05,0,.09,0,.18-.01.28-.01.08,0,.16,0,.24,0,.15,0,.46.1,0-.01.18.05.36.07.53.12.07.02.15.05.22.08.24.09-.36-.18,0,0,.13.07.61.42.2.1l-.39-.66c.03.08.04.17.07.25-.03-.3-.04-.37-.03-.21,0,.04,0,.08,0,.12,0,.36.08-.33.01-.09-.02.08-.05.16-.08.24.13-.45.09-.21,0-.07s-.27.26.04-.04c-.06.06-.12.13-.18.2-.11.1-.35.23.04-.01-.16.09-.32.19-.48.28.25-.1.31-.13.17-.07-.04.02-.09.03-.13.05-.09.03-.18.05-.27.07-.25.06.44-.03.06-.01-.09,0-.18-.01-.27,0,.28.04.35.05.19.03-.05,0-.09-.02-.13-.03-.12-.03-.42-.18.03.03-.38-.17-.74-.26-1.16-.15-.35.1-.73.36-.9.69-.35.66-.22,1.7.54,2.05.8.37,1.57.47,2.44.3.69-.14,1.31-.5,1.84-.95s.89-1.03,1.1-1.66c.28-.88.14-2.02-.62-2.61-1.2-.93-2.74-1.16-4.2-.88s-2.77,1.35-3.33,2.79c-.6,1.54-.16,3.36.99,4.52.35.35.97.57,1.46.39,1.55-.59,2.84-1.57,3.76-2.96.79-1.19,1.24-2.73,1.06-4.17-.05-.41-.13-.76-.44-1.06-.26-.26-.69-.46-1.06-.44-.73.03-1.6.67-1.5,1.5h0Z"/>
  </g>
  <g>
    <path class="cls-4" d="M194.37,164.16c2.43,1.39,1.19,5.52-1.69,5.64-.7-1.12-.79-2.54-.23-3.72,1.19-.55,2.81-.17,3.54.84-.58,1.29-2.16,2.16-3.71,2.04"/>
    <path class="cls-2" d="M193.61,165.46c.07.04.14.09.21.13.2.13-.33-.28-.07-.05.06.05.11.1.16.16.12.13.14.29-.05-.09.07.13.16.25.23.38s.03.27-.06-.16c.02.07.05.14.07.21s.04.14.05.21c.03.16,0,.37,0-.13,0,.15.02.29.02.44,0,.06,0,.11,0,.17-.01.34.06-.36.02-.12-.03.15-.06.3-.1.44-.02.07-.05.15-.07.22-.12.32.15-.31.04-.09-.06.12-.12.24-.19.35-.04.07-.08.13-.13.19-.2.28.22-.25.06-.08-.1.12-.2.23-.32.33-.1.09-.34.22.08-.05-.05.03-.09.07-.14.1-.13.09-.27.15-.41.22.45-.24.22-.09.08-.04-.08.03-.15.05-.23.07s-.16.03-.24.05c.52-.11.23-.03.08-.02l1.3.74c-.08-.13-.15-.27-.22-.4-.12-.24.08.24.03.06-.02-.07-.05-.14-.07-.21-.04-.13-.07-.26-.1-.39-.05-.25.02-.02,0,.09,0-.07-.02-.15-.02-.22,0-.13-.01-.27,0-.4,0-.07.01-.15.02-.22.01-.19-.07.35-.01.09.03-.15.06-.29.11-.44.02-.06.04-.11.06-.17.1-.31-.15.32-.01.02l-.54.54c-.47.21,0,0,.15-.02.06-.01.13-.03.19-.04.18-.04-.38.03-.13.02.16,0,.31,0,.47,0,.26.01-.31-.06-.13-.02.08.01.15.03.23.05.03,0,.41.13.41.13-.01.02-.39-.18-.08-.03.06.03.11.06.17.09s.11.07.16.1c.23.14-.26-.24-.07-.05.1.1.41.48.11.07v-1.51c-.07.15-.15.3-.25.44-.19.29.21-.23.02-.02-.05.06-.1.12-.16.18s-.11.11-.17.16c-.11.1-.26.14.05-.03-.15.08-.29.2-.45.29-.07.04-.15.08-.22.11-.32.15.29-.09.01,0-.16.05-.32.11-.48.14-.08.02-.16.03-.25.05-.3.05.35-.02.07-.01-.2,0-.39.01-.59,0-.78-.05-1.53.73-1.5,1.5.04.86.66,1.45,1.5,1.5,1.96.13,4.15-.96,5-2.79.21-.45.33-1.07,0-1.51-.61-.81-1.39-1.39-2.38-1.66-.84-.23-1.82-.25-2.64.05-.46.16-.9.36-1.13.82-.13.26-.24.54-.33.83-.14.47-.21.97-.22,1.46-.02,1.01.27,2.05.8,2.91.27.44.77.77,1.3.74,1.58-.08,2.98-.93,3.79-2.3.69-1.17.94-2.74.43-4.02-.36-.9-.93-1.62-1.77-2.12-.68-.4-1.67-.18-2.05.54s-.18,1.63.54,2.05h0Z"/>
  </g>
  <path class="cls-2" d="M185.26,231.73c0,.06,0,.12,0,.19-.01.16,0,.12.03-.12-.04.07-.04.2-.06.27,0,.02-.09.26-.09.27.09-.21.11-.25.04-.1-.02.04-.04.08-.07.13-.05.1-.12.19-.18.28-.15.24.21-.22,0,0-.07.07-.13.15-.2.21-.05.05-.1.09-.15.13-.12.1-.1.09.07-.05-.08.14-.37.25-.51.33-.06.03-.41.14-.19.1.24-.05-.16.05-.21.06-.1.03-.2.05-.3.07-.31.09.29,0,0,0-.14,0-.28.02-.41.01-.12,0-.4-.09,0,.02-.21-.05-.41-.08-.62-.15-.36-.12.22.12-.04-.02-.09-.04-.17-.09-.25-.14s-.16-.1-.24-.15c-.13-.09-.1-.07.08.06-.05-.04-.1-.08-.14-.12-.07-.06-.31-.4-.39-.41.14.18.16.21.07.08-.03-.04-.05-.08-.08-.11-.06-.09-.11-.18-.16-.28-.02-.04-.04-.08-.06-.12-.05-.1-.03-.05.06.15.01-.06-.07-.19-.08-.25-.03-.11-.03-.25-.07-.35l.03.22c0-.06,0-.12,0-.18,0-.05.03-.22,0-.26-.04.25-.04.3-.02.14.01-.06.02-.12.04-.17l-1.05,1.05c.51-.19,1.1-.4,1.65-.42-.43.02.09,0,.17,0,.15-.01.31-.02.46-.02.27,0,.54,0,.8.02.15.01.31.01.46.04-.39-.09-.01,0,.05.01.3.05.6.12.89.21.24.07.53.14.75.26-.35-.2.08.04.16.08.13.07.27.14.4.21l-.69-1.69c-.08.23.2-.36,0-.05-.13.21.27-.26.07-.09-.02.02-.14.11-.15.14.21-.16.26-.2.14-.11-.04.03-.08.05-.12.07-.13.07-.3.07.1-.03-.07.02-.14.05-.21.07-.09.03-.21.03-.29.07.11-.05.38-.04.1-.02-.08,0-.15,0-.23,0-.06,0-.4-.04-.1,0s-.03-.01-.09-.03c-.07-.02-.14-.04-.21-.06-.25-.08.33.2.07.02-.03-.02-.06-.03-.09-.05-.13-.09-.08-.05.14.11,0,0-.14-.13-.15-.14-.18-.14.21.34.03.02-.39-.68-1.38-.97-2.05-.54s-.95,1.32-.54,2.05c.64,1.13,2.03,1.72,3.3,1.61,1.43-.13,2.69-.84,3.18-2.25.21-.61-.14-1.38-.69-1.69-1.47-.83-3.16-1.25-4.85-1.25-.84,0-1.69.11-2.5.32-.6.16-1.35.35-1.65.93-.23.43-.3.98-.29,1.46.03,1.62.98,3.06,2.31,3.94,1.48.98,3.32.99,4.91.29s2.95-2.44,2.92-4.29c-.01-.78-.68-1.54-1.5-1.5s-1.51.66-1.5,1.5h0Z"/>
  <path class="cls-2" d="M169.63,320.16c-.24.39-.49.77-.76,1.14-.11.15.21-.26.09-.12-.03.04-.07.08-.1.12-.08.09-.15.18-.23.27-.15.16-.31.32-.48.46-.11.09-.23.11.09-.07-.04.02-.09.06-.13.09-.09.06-.17.11-.26.16s-.19.09-.28.14c.42-.23.06-.03-.09.01-.1.03-.21.04-.32.07.43-.12.24-.02.07-.03-.04,0-.09,0-.13,0-.22,0,.2.01.2.03,0,0-.3-.07-.32-.08-.33-.11.25.14.05.02-.08-.04-.16-.08-.23-.13-.05-.03-.09-.06-.14-.09-.15-.09.27.23.15.11-.07-.07-.14-.13-.21-.2-.04-.04-.18-.22,0,.01.16.21.06.08.03.03-.04-.07-.08-.13-.12-.2-.14-.25.14.39.04.07,0-.01-.03-.1-.02-.1.02-.02.02.47.03.22.03-.33-.05.22-.03.14.04-.17.09-.06-.09.19.02-.03.03-.07.05-.09.08-.12.08-.01-.14.17.03-.02.06-.06.08-.09.15-.14.29-.3.39-.49.06-.12.16-.06-.13.16.01,0,.08-.09.09-.09,0,.02-.34.22-.16.12.04-.02.08-.04.11-.06.18-.12-.17.1-.18.07,0,0,.11-.04.12-.04.04-.01.09-.02.13-.03.24-.06-.38,0-.14.02.04,0,.09,0,.13,0,.11,0,.09,0-.07-.01-.16-.02-.18-.03-.07,0,.01,0,.13.03.12.04-.01.03-.39-.21-.15-.06.06.04.18.13-.02-.03-.3-.23.15.22-.09-.08-.15-.2-.06-.08-.03-.02.08.15-.11-.38-.07-.16.07.35-.03-.38,0-.03.01.21,0-.2.03-.21,0,0-.05.19-.05.18,0,0,.17-.37.07-.19-.11.21.27-.27.08-.1-.01.01-.09.09-.09.09,0,0,.37-.24.08-.09-.69.37-.97,1.39-.54,2.05.45.71,1.31.93,2.05.54.84-.45,1.33-1.34,1.37-2.28s-.47-1.79-1.25-2.26c-.68-.41-1.6-.5-2.35-.25-.44.14-.82.35-1.16.67-.15.14-.28.32-.4.49-.12.18-.1.03.1-.1-.06.04-.1.1-.15.15-1.09,1.23-.69,3.01.5,4.02.53.45,1.16.81,1.85.92.92.15,1.75-.03,2.59-.43,1.37-.66,2.29-1.99,3.06-3.25.41-.67.17-1.68-.54-2.05s-1.62-.18-2.05.54h0Z"/>
  <path class="cls-2" d="M163.56,440.48c-.4.83-.83,1.65-1.35,2.42-.07.1-.14.2-.21.3-.23.32.14-.15-.02.03-.15.16-.28.33-.44.49-.14.14-.28.28-.43.41-.05.04-.36.26-.07.06-.13.09-.26.18-.4.26-.17.1-.35.2-.54.28.33-.15-.05,0-.1.03-.11.04-.23.07-.34.1-.03,0-.19.05-.2.04l.19-.03c-.07,0-.14,0-.21.01-.1,0-.21,0-.31,0-.33,0,.28.07-.01,0-.2-.05-.4-.11-.6-.17-.34-.11.28.16-.02-.01-.06-.03-.12-.06-.18-.1-.09-.05-.18-.1-.26-.16l-.08-.06c-.13-.09-.11-.08.06.05-.12,0-.36-.32-.43-.4-.22-.24.02-.08,0,.01,0-.02-.1-.16-.12-.19-.03-.05-.06-.16-.1-.19.17.16.09.27.03.04-.09-.34.02.08,0,.08,0,0,0-.14,0-.16.02-.31-.07.38-.01.08.08-.37-.13.16,0-.03l.05-.08c.07-.1.07-.1,0,0l-.06.08c.05-.06.1-.11.16-.16-.22.22.05-.03.11-.07.11-.07.23-.13.35-.18-.06.03-.25.09.02,0,.13-.04.26-.09.39-.12.27-.08.54-.15.81-.21s.56-.12.84-.17c.45-.08-.29,0,.17-.02.09,0,.19-.02.28-.02.28-.02.56,0,.84,0,.3.02.08.01.01,0,.18.03.36.07.53.13.05.02.42.2.15.05.06.03.16.12.23.13.16.03-.22-.23-.01-.02.03.03.22.18.22.22l-.11-.14c.04.05.08.11.11.17.04.06.06.12.1.17.17.28-.07-.31,0,0,.02.06.04.12.05.19.03.16.03.12,0-.12,0,0,0,.16,0,.19.03.26.07-.36-.01.05-.06.31.16-.3,0-.03s.19-.23,0-.01c-.21.23.25-.14,0,0,.23-.09.27-.11.12-.06-.16.03-.11.03.16-.01-.06,0-.32-.02-.05.01.33.04-.11-.01-.12-.05,0,.02.34.19.05,0-.05-.03-.1-.06-.14-.09.18.14.23.18.14.1-.03-.05-.1-.11-.15-.15-.18-.16.19.31,0-.02-.13-.24.11.3.05.12-.11-.31.01.35.02.1l-.03.27c.05-.14.02-.08-.07.18-.17.2-.21.25-.1.14-.2.15-.24.18-.1.1.68-.39.97-1.38.54-2.05s-1.32-.95-2.05-.54c-1.47.84-1.44,2.59-.43,3.77.9,1.05,2.48,1.44,3.71.75,1.3-.73,1.76-2.42,1.26-3.77-.55-1.46-1.8-2.43-3.34-2.69s-3.19,0-4.68.48-2.91,1.51-3,3.22c-.14,2.58,2.92,4.51,5.25,4.32,3.26-.25,5.2-3.2,6.5-5.87.34-.7.21-1.65-.54-2.05-.67-.36-1.69-.21-2.05.54h0Z"/>
  <path class="cls-1" d="M171.01,579.43s.09.06.13.09l-.3-.23c.1.08.2.17.28.28l-.23-.3c.09.11.16.23.22.36l-.15-.36c.06.14.1.29.12.45l-.05-.4c.02.19.02.38,0,.57l.05-.4c-.03.19-.08.38-.15.56l.15-.36c-.08.2-.19.38-.32.55l.23-.3c-.11.14-.24.27-.39.39l.3-.23c-.15.11-.31.21-.48.28l.36-.15c-.16.07-.33.11-.5.14l.4-.05c-.2.02-.39.03-.59,0l.4.05c-.21-.03-.42-.09-.61-.17l.36.15c-.19-.09-.37-.19-.54-.32l.3.23c-.18-.14-.34-.3-.48-.48l.23.3c-.15-.19-.27-.4-.37-.63l.15.36c-.08-.19-.13-.38-.16-.58l.05.4c-.02-.18-.02-.36,0-.53l-.05.4c.02-.16.06-.32.13-.47l-.15.36c.07-.15.15-.29.25-.42l-.23.3c.12-.16.26-.29.42-.41l-.3.23c.19-.14.4-.26.62-.35l-.36.15c.28-.12.57-.19.88-.23l-.4.05c.33-.04.66-.04.98,0l-.4-.05c.28.04.56.11.83.22l-.36-.15c.22.09.43.21.63.36l-.3-.23c.09.07.17.14.25.22.56.55,1.57.6,2.12,0s.6-1.53,0-2.12c-1.17-1.15-2.92-1.48-4.48-1.12-1.65.38-3,1.72-3.06,3.46s1.21,3.25,2.78,3.84c.72.27,1.63.28,2.35,0,.81-.31,1.46-.82,1.93-1.56.41-.64.64-1.47.56-2.23-.11-1.05-.6-1.9-1.49-2.49-.66-.43-1.69-.15-2.05.54-.4.75-.16,1.59.54,2.05h0Z"/>
  <path class="cls-3" d="M181.9,604.83c1.93,0,1.93-3,0-3s-1.93,3,0,3h0Z"/>
</svg>