<?xml version="1.0" encoding="UTF-8"?>
<svg id="Layer_1" data-name="Layer 1" xmlns="http://www.w3.org/2000/svg" viewBox="0 0 189.7 77.52">
  <defs>
    <style>
      .cls-1 {
        fill: #412312;
        stroke: #392513;
        stroke-miterlimit: 10;
      }
    </style>
  </defs>
  <path class="cls-1" d="M164.7,59c-.63-7.92-13.4-6.83-21-19-9.03-14.46.99-28.8-8-36-5.21-4.17-14.53-4.11-19,0-4.42,4.07-6.24-11.53-6,16,.05,6.3,5,40,5,40h0c-7.95-6.63,15.66,16.44,26,17,11.04.6,23.64-9.9,23-18Z"/>
  <path class="cls-1" d="M.52,58.61c.63-7.92,13.4-6.83,21-19,9.03-14.46-.99-28.8,8-36,5.21-4.17,14.53-4.11,19,0,4.42,4.07,6.24-11.53,6,16-.05,6.3-5,40-5,40h0c7.95-6.63-15.66,16.44-26,17C12.48,77.2-.12,66.71.52,58.61Z"/>
</svg>