<?xml version="1.0" encoding="UTF-8"?>
<svg id="Layer_1" data-name="Layer 1" xmlns="http://www.w3.org/2000/svg" viewBox="0 0 316.75 481.66">
  <defs>
    <style>
      .cls-1 {
        fill: #805120;
      }

      .cls-1, .cls-2 {
        stroke: #392513;
        stroke-miterlimit: 10;
      }

      .cls-2 {
        fill: #412312;
      }

      .cls-3 {
        fill: #392513;
        stroke-width: 0px;
      }
    </style>
  </defs>
  <polyline class="cls-1" points="79.61 15.08 .61 481.08 149.61 462.08 163.61 131.08 169.61 460.08 316.16 479.04 252.16 23.04"/>
  <path class="cls-3" d="M122.92,21.19c-7.65,16.75-21.87,30.29-38.91,37.27-4.8,1.97-9.81,3.4-14.92,4.29-1.9.33-1.09,3.22.8,2.89,18.77-3.27,35.84-14.05,47.36-29.15,3.26-4.27,6.03-8.9,8.27-13.79.8-1.74-1.79-3.27-2.59-1.51h0Z"/>
  <path class="cls-3" d="M202.05,21.35c-3.03,11.21,3.91,21.61,10.99,29.65,3.58,4.06,7.42,7.94,11.37,11.63s8.22,7.25,12.92,10.02c5.15,3.04,10.82,5.05,16.81,5.41,1.93.11,1.92-2.89,0-3-10.14-.6-18.81-6.57-26.12-13.18-3.79-3.43-7.41-7.08-10.89-10.83s-7.04-8.02-9.58-12.71c-2.7-4.99-4.12-10.6-2.61-16.2.5-1.87-2.39-2.66-2.89-.8h0Z"/>
  <path class="cls-3" d="M162.76,29.73c-.94,3.43.44,7.19,3.11,9.48s6.42,3,9.66,1.33c3-1.54,5.02-4.77,5.25-8.11s-1.67-6.34-4.52-7.91c-3.09-1.7-7.24-1.83-10.13.36-.65.49-.98,1.29-.54,2.05.37.64,1.4,1.03,2.05.54,1.85-1.4,4.03-1.55,6.18-.78,1.97.7,3.67,2.43,3.94,4.53.29,2.27-.88,4.69-2.71,6.09-1.98,1.52-4.43,1.57-6.52.19-2.27-1.49-3.59-4.4-2.89-6.97.51-1.86-2.38-2.66-2.89-.8h0Z"/>
  <path class="cls-3" d="M127.07,440.31c-20.1-.42-40.22,1.94-59.68,6.98-1.87.48-1.08,3.38.8,2.89,19.22-4.98,39.04-7.28,58.88-6.87,1.93.04,1.93-2.96,0-3h0Z"/>
  <path class="cls-3" d="M233.81,436.58c16.15-.03,32.24,2.35,47.68,7.09,4.39,1.35,8.72,2.89,12.98,4.6,1.79.72,2.57-2.18.8-2.89-15.16-6.09-31.19-9.87-47.46-11.23-4.65-.39-9.32-.57-13.99-.56-1.93,0-1.93,3,0,3h0Z"/>
  <path class="cls-3" d="M143.87,107.05c-9.32-1.02-21.44-1.43-27.62,7.05-1.8,2.48-2.68,5.48-3.24,8.46-.66,3.48-1.13,7.01-1.66,10.51-1.09,7.16-2.13,14.32-3.12,21.49-4.01,28.98-7.25,58.06-9.71,87.21-1.38,16.39-2.51,32.81-3.4,49.23-.1,1.93,2.9,1.92,3,0,1.54-28.5,3.82-56.96,6.85-85.34,1.51-14.15,3.2-28.28,5.08-42.39.94-7.04,1.92-14.08,2.95-21.11.52-3.58,1.06-7.16,1.61-10.74.5-3.24.89-6.53,1.63-9.72.71-3.02,1.94-5.81,4.29-7.91,1.87-1.68,4.23-2.7,6.64-3.33,5.41-1.41,11.2-1.02,16.69-.41,1.92.21,1.9-2.79,0-3h0Z"/>
  <path class="cls-3" d="M191.01,112.13c4.7-.82,9.23,1.97,12.12,5.48,3.31,4.03,4.69,9.35,5.88,14.32,2.66,11.16,5.55,22.23,8.98,33.18,6.93,22.16,15.46,43.77,24.51,65.14,5.11,12.05,10.39,24.03,15.67,36.01.78,1.76,3.36.24,2.59-1.51-9.66-21.88-19.31-43.78-27.87-66.12-4.25-11.1-8.23-22.3-11.8-33.63-3.56-11.31-6.51-22.75-9.29-34.27-1.35-5.61-3.11-11.42-7.05-15.81-3.66-4.08-9.01-6.63-14.53-5.67-1.9.33-1.09,3.22.8,2.89h0Z"/>
  <rect class="cls-2" x="80.64" y="4.86" width="172.43" height="13.89" transform="translate(.81 -8.38) rotate(2.89)"/>
</svg>