<?xml version="1.0" encoding="UTF-8"?>
<svg id="Layer_1" data-name="Layer 1" xmlns="http://www.w3.org/2000/svg" viewBox="0 0 203.36 259.16">
  <defs>
    <style>
      .cls-1 {
        fill: #efd2e5;
      }

      .cls-1, .cls-2 {
        stroke: #f27baa;
        stroke-miterlimit: 10;
      }

      .cls-2 {
        fill: none;
      }
    </style>
  </defs>
  <path class="cls-1" d="M184.69,47.42c11.37-10.64,16.82,23.06,17,25,4,43-3.31,61.02-6,66-7.48,13.89-6.98,16.35-19,24-44,28,18.84,93.39-7,95-48,3-95,0-133-3-23.6-1.86,19.64-49.47,3-78-6.5-11.15-13.03-9.79-24-27-4.18-6.56-13.56-21.66-15-43-1.08-16.06,2.59-31.66,8-42,25.88-49.47,83,70,176-17Z"/>
  <line class="cls-1" x1="38.39" y1="54.55" x2="38.39" y2="12.63"/>
  <line class="cls-1" x1="168.07" y1="62" x2="168.07" y2="20.09"/>
  <path class="cls-2" d="M37.49,13.59c5.64-5.24,15.42-9.54,19.9-5.97,4.63,3.69,3.97,16.09-.5,17.62C49.43,27.78,35.89-1.52,23.58.61c-5.01.87-8.76,6.77-8.4,12.48.44,6.97,7.01,13.93,11.62,13.68,4.38-.24,3.8-6.8,10.69-13.19Z"/>
  <path class="cls-2" d="M165.23,20.5c5.64-5.24,15.42-9.54,19.9-5.97,4.63,3.69,3.97,16.09-.5,17.62-7.46,2.55-21-26.76-33.31-24.62-5.01.87-8.76,6.77-8.4,12.48.44,6.97,7.01,13.93,11.62,13.68,4.38-.24,3.8-6.8,10.69-13.19Z"/>
</svg>