<?xml version="1.0" encoding="UTF-8"?>
<svg id="Layer_1" data-name="Layer 1" xmlns="http://www.w3.org/2000/svg" viewBox="0 0 171 160.72">
  <defs>
    <style>
      .cls-1 {
        fill: #c5b2d7;
        stroke-width: 0px;
      }
    </style>
  </defs>
  <path class="cls-1" d="M158.46,68.71c-6.13,11.99-9.21,11.63-13.2,21.85-9.42,24.16,3.13,38.14-3.05,51.35-13.5,28.88-102.06,23.37-113.69-8.74-2.58-7.14,1.04-8.94-1.02-22.94-3.21-21.84-13.24-25.61-21.32-50.26C2.13,47.56-4.32,27.86,4.17,17.36c7.12-8.81,21.42-7.04,25.38-6.56,23.02,2.84,28.42,22.84,44.66,21.85,11.95-.73,12.67-11.76,29.44-21.85,19.94-12,51.84-16.19,62.93-1.09,12.74,17.33-5.9,54.66-8.12,59Z"/>
</svg>